<svg xmlns="http://www.w3.org/2000/svg" viewBox="0 0 8.61 8.61"><defs><style>.cls-1{fill:#0077c0;}.cls-2{fill:#fff;}</style></defs><title>Asset 1</title><g id="Layer_2" data-name="Layer 2"><g id="_2" data-name="2"><rect class="cls-1" width="8.61" height="8.61" rx="1.14" ry="1.14"/></g><g id="_1" data-name="1"><path class="cls-2" d="M4.29,7.5A3.22,3.22,0,1,1,7.5,4.28,3.22,3.22,0,0,1,4.29,7.5Zm0-6.17a3,3,0,1,0,3,3A2.95,2.95,0,0,0,4.29,1.33Z"/><path class="cls-2" d="M4.1,2.72A.2.2,0,0,0,4,2.49a.19.19,0,0,0-.24.08Z"/><polygon class="cls-2" points="2.56 5.96 2.88 5.63 2.56 5.5 2.56 5.96"/><polygon class="cls-2" points="4.06 2.8 3.71 2.65 2.57 5.41 2.93 5.56 4.06 2.8"/><polygon class="cls-2" points="2.02 4.04 2.02 4.37 2.86 4.37 3 4.04 2.02 4.04"/><polygon class="cls-2" points="6.49 4.04 5.3 4.04 5.43 4.37 6.49 4.37 6.49 4.04"/><polygon class="cls-2" points="3.7 4.04 3.54 4.37 4.82 4.37 4.68 4.04 3.7 4.04"/><rect class="cls-2" x="4.59" y="2.09" width="0.36" height="2.85" transform="translate(-0.99 2.13) rotate(-22.89)"/><polygon class="cls-2" points="5.19 4.97 5.52 4.83 5.63 5.1 5.3 5.24 5.19 4.97"/><path class="cls-2" d="M5.81,6a.69.69,0,0,1,0-.32c0-.11.08-.22,0-.32a.26.26,0,0,0-.34-.09.26.26,0,0,0-.07.37.61.61,0,0,0,.12.16l.12.1S5.8,5.92,5.81,6Z"/></g></g></svg>